<svg width="24" height="24" viewBox="0 0 24 24" fill="none" xmlns="http://www.w3.org/2000/svg">
<path fill-rule="evenodd" clip-rule="evenodd" d="M11 0.549988H13V3.49999H11V0.549988ZM6.76 4.83999L4.96 3.04999L3.55 4.45999L5.34 6.24999L6.76 4.83999ZM4 10.5H1V12.5H4V10.5ZM20.45 4.45999L19.04 3.04999L17.25 4.83999L18.66 6.24999L20.45 4.45999ZM19.03 19.96L17.24 18.16L18.64 16.76L20.44 18.55L19.03 19.96ZM23 10.5H20V12.5H23V10.5ZM6 11.5C6 8.18999 8.69 5.49999 12 5.49999C15.31 5.49999 18 8.18999 18 11.5C18 14.81 15.31 17.5 12 17.5C8.69 17.5 6 14.81 6 11.5ZM13 22.45V19.5H11V22.45H13ZM4.96 19.95L3.55 18.54L5.34 16.74L6.75 18.15L4.96 19.95Z" fill="white"/>
</svg>
