<svg width="24" height="24" viewBox="0 0 24 24" fill="none" xmlns="http://www.w3.org/2000/svg">
<path fill-rule="evenodd" clip-rule="evenodd" d="M17.0699 3.98L22.0299 15.95C22.4499 16.96 21.9599 18.13 20.9399 18.55L13.5799 21.6C13.3299 21.7 13.0699 21.75 12.8099 21.75C12.0299 21.74 11.2899 21.28 10.9799 20.52L6.01986 8.55C5.90986 8.29 5.85986 8.02 5.86985 7.75C5.88985 6.98 6.34986 6.26 7.09986 5.95L14.4699 2.9C14.7299 2.79 14.9999 2.75 15.2599 2.75C16.0299 2.77 16.7599 3.23 17.0699 3.98ZM3.86985 20.21L2.52986 19.65C1.51986 19.23 1.02986 18.06 1.43986 17.04L3.86985 11.18V20.21ZM7.87986 8.75C7.32985 8.75 6.87986 8.3 6.87986 7.75C6.87986 7.2 7.32985 6.75 7.87986 6.75C8.42986 6.75 8.87986 7.2 8.87986 7.75C8.87986 8.3 8.42986 8.75 7.87986 8.75ZM7.87986 21.75C6.77986 21.75 5.87986 20.85 5.87986 19.75V13.41L9.32985 21.75H7.87986Z" fill="white"/>
</svg>
