<svg width="24" height="24" viewBox="0 0 24 24" fill="none" xmlns="http://www.w3.org/2000/svg">
<path fill-rule="evenodd" clip-rule="evenodd" d="M19.0195 10V19H4.99953V5H13.9995V3H5.01953C3.91953 3 3.01953 3.9 3.01953 5V19C3.01953 20.1 3.91953 21 5.01953 21H19.0195C20.1195 21 21.0195 20.1 21.0195 19V10H19.0195ZM16.9995 10L17.9395 7.94L19.9995 7L17.9395 6.06L16.9995 4L16.0595 6.06L13.9995 7L16.0595 7.94L16.9995 10ZM11.9995 8L13.2495 10.75L15.9995 12L13.2495 13.25L11.9995 16L10.7495 13.25L7.99953 12L10.7495 10.75L11.9995 8Z" fill="white"/>
</svg>
